<mxfile host="app.diagrams.net" modified="2024-06-25T23:36:42.885Z" agent="Mozilla/5.0 (Windows NT 10.0; Win64; x64) AppleWebKit/537.36 (KHTML, like Gecko) Chrome/126.0.0.0 Safari/537.36" etag="wJbCFixF-iftV1NuuOXA" version="24.6.3" type="github">
  <diagram id="C5RBs43oDa-KdzZeNtuy" name="Page-1">
    <mxGraphModel dx="1434" dy="792" grid="1" gridSize="10" guides="1" tooltips="1" connect="1" arrows="1" fold="1" page="1" pageScale="1" pageWidth="827" pageHeight="1169" math="0" shadow="0">
      <root>
        <mxCell id="WIyWlLk6GJQsqaUBKTNV-0" />
        <mxCell id="WIyWlLk6GJQsqaUBKTNV-1" parent="WIyWlLk6GJQsqaUBKTNV-0" />
        <mxCell id="fM8jIbHwMcKQAK3EIxCl-0" value="CLIENT" style="rounded=0;whiteSpace=wrap;html=1;" vertex="1" parent="WIyWlLk6GJQsqaUBKTNV-1">
          <mxGeometry x="320" y="170" width="120" height="60" as="geometry" />
        </mxCell>
        <mxCell id="fM8jIbHwMcKQAK3EIxCl-2" value="" style="endArrow=classic;html=1;rounded=0;exitX=0.5;exitY=1;exitDx=0;exitDy=0;" edge="1" parent="WIyWlLk6GJQsqaUBKTNV-1" source="fM8jIbHwMcKQAK3EIxCl-3">
          <mxGeometry width="50" height="50" relative="1" as="geometry">
            <mxPoint x="364" y="280" as="sourcePoint" />
            <mxPoint x="380" y="310" as="targetPoint" />
          </mxGeometry>
        </mxCell>
        <mxCell id="fM8jIbHwMcKQAK3EIxCl-6" value="" style="edgeStyle=orthogonalEdgeStyle;rounded=0;orthogonalLoop=1;jettySize=auto;html=1;" edge="1" parent="WIyWlLk6GJQsqaUBKTNV-1" source="fM8jIbHwMcKQAK3EIxCl-3" target="fM8jIbHwMcKQAK3EIxCl-4">
          <mxGeometry relative="1" as="geometry" />
        </mxCell>
        <mxCell id="fM8jIbHwMcKQAK3EIxCl-8" value="" style="edgeStyle=orthogonalEdgeStyle;rounded=0;orthogonalLoop=1;jettySize=auto;html=1;" edge="1" parent="WIyWlLk6GJQsqaUBKTNV-1" source="fM8jIbHwMcKQAK3EIxCl-4" target="fM8jIbHwMcKQAK3EIxCl-7">
          <mxGeometry relative="1" as="geometry" />
        </mxCell>
        <mxCell id="fM8jIbHwMcKQAK3EIxCl-12" value="" style="edgeStyle=orthogonalEdgeStyle;rounded=0;orthogonalLoop=1;jettySize=auto;html=1;" edge="1" parent="WIyWlLk6GJQsqaUBKTNV-1" source="fM8jIbHwMcKQAK3EIxCl-4" target="fM8jIbHwMcKQAK3EIxCl-11">
          <mxGeometry relative="1" as="geometry" />
        </mxCell>
        <mxCell id="fM8jIbHwMcKQAK3EIxCl-4" value="WEB SERVER" style="rounded=0;whiteSpace=wrap;html=1;" vertex="1" parent="WIyWlLk6GJQsqaUBKTNV-1">
          <mxGeometry x="320" y="450" width="120" height="60" as="geometry" />
        </mxCell>
        <mxCell id="fM8jIbHwMcKQAK3EIxCl-23" style="edgeStyle=orthogonalEdgeStyle;rounded=0;orthogonalLoop=1;jettySize=auto;html=1;entryX=1;entryY=0.5;entryDx=0;entryDy=0;" edge="1" parent="WIyWlLk6GJQsqaUBKTNV-1" source="fM8jIbHwMcKQAK3EIxCl-7" target="fM8jIbHwMcKQAK3EIxCl-15">
          <mxGeometry relative="1" as="geometry" />
        </mxCell>
        <mxCell id="fM8jIbHwMcKQAK3EIxCl-7" value="SEARCH API" style="whiteSpace=wrap;html=1;rounded=0;" vertex="1" parent="WIyWlLk6GJQsqaUBKTNV-1">
          <mxGeometry x="520" y="450" width="120" height="60" as="geometry" />
        </mxCell>
        <mxCell id="fM8jIbHwMcKQAK3EIxCl-22" style="edgeStyle=orthogonalEdgeStyle;rounded=0;orthogonalLoop=1;jettySize=auto;html=1;entryX=0;entryY=0.5;entryDx=0;entryDy=0;" edge="1" parent="WIyWlLk6GJQsqaUBKTNV-1" source="fM8jIbHwMcKQAK3EIxCl-11" target="fM8jIbHwMcKQAK3EIxCl-15">
          <mxGeometry relative="1" as="geometry" />
        </mxCell>
        <mxCell id="fM8jIbHwMcKQAK3EIxCl-11" value="CONVERT API" style="whiteSpace=wrap;html=1;rounded=0;" vertex="1" parent="WIyWlLk6GJQsqaUBKTNV-1">
          <mxGeometry x="120" y="450" width="120" height="60" as="geometry" />
        </mxCell>
        <mxCell id="fM8jIbHwMcKQAK3EIxCl-15" value="RESULT" style="ellipse;whiteSpace=wrap;html=1;" vertex="1" parent="WIyWlLk6GJQsqaUBKTNV-1">
          <mxGeometry x="330" y="600" width="120" height="80" as="geometry" />
        </mxCell>
        <mxCell id="fM8jIbHwMcKQAK3EIxCl-17" value="" style="curved=1;endArrow=classic;html=1;rounded=0;exitX=0;exitY=0.5;exitDx=0;exitDy=0;entryX=0;entryY=0.688;entryDx=0;entryDy=0;entryPerimeter=0;" edge="1" parent="WIyWlLk6GJQsqaUBKTNV-1" source="fM8jIbHwMcKQAK3EIxCl-0" target="fM8jIbHwMcKQAK3EIxCl-18">
          <mxGeometry width="50" height="50" relative="1" as="geometry">
            <mxPoint x="270" y="170" as="sourcePoint" />
            <mxPoint x="170" y="370" as="targetPoint" />
            <Array as="points">
              <mxPoint x="300" y="250" />
              <mxPoint x="210" y="230" />
              <mxPoint x="160" y="270" />
              <mxPoint x="100" y="270" />
              <mxPoint x="40" y="280" />
              <mxPoint x="10" y="400" />
              <mxPoint x="90" y="370" />
            </Array>
          </mxGeometry>
        </mxCell>
        <mxCell id="fM8jIbHwMcKQAK3EIxCl-19" value="" style="edgeStyle=orthogonalEdgeStyle;rounded=0;orthogonalLoop=1;jettySize=auto;html=1;entryX=0.5;entryY=0;entryDx=0;entryDy=0;" edge="1" parent="WIyWlLk6GJQsqaUBKTNV-1" source="fM8jIbHwMcKQAK3EIxCl-18" target="fM8jIbHwMcKQAK3EIxCl-7">
          <mxGeometry relative="1" as="geometry" />
        </mxCell>
        <mxCell id="fM8jIbHwMcKQAK3EIxCl-21" value="" style="edgeStyle=orthogonalEdgeStyle;rounded=0;orthogonalLoop=1;jettySize=auto;html=1;" edge="1" parent="WIyWlLk6GJQsqaUBKTNV-1" source="fM8jIbHwMcKQAK3EIxCl-18" target="fM8jIbHwMcKQAK3EIxCl-11">
          <mxGeometry relative="1" as="geometry" />
        </mxCell>
        <mxCell id="fM8jIbHwMcKQAK3EIxCl-18" value="REQUEST" style="ellipse;whiteSpace=wrap;html=1;" vertex="1" parent="WIyWlLk6GJQsqaUBKTNV-1">
          <mxGeometry x="180" y="320" width="120" height="80" as="geometry" />
        </mxCell>
        <mxCell id="fM8jIbHwMcKQAK3EIxCl-20" value="" style="endArrow=classic;html=1;rounded=0;exitX=0.5;exitY=1;exitDx=0;exitDy=0;" edge="1" parent="WIyWlLk6GJQsqaUBKTNV-1" source="fM8jIbHwMcKQAK3EIxCl-0" target="fM8jIbHwMcKQAK3EIxCl-3">
          <mxGeometry width="50" height="50" relative="1" as="geometry">
            <mxPoint x="380" y="230" as="sourcePoint" />
            <mxPoint x="380" y="310" as="targetPoint" />
          </mxGeometry>
        </mxCell>
        <mxCell id="fM8jIbHwMcKQAK3EIxCl-3" value="LOAD BALANCER" style="rounded=0;whiteSpace=wrap;html=1;" vertex="1" parent="WIyWlLk6GJQsqaUBKTNV-1">
          <mxGeometry x="320" y="270" width="120" height="60" as="geometry" />
        </mxCell>
      </root>
    </mxGraphModel>
  </diagram>
</mxfile>
